<?xml version="1.0" encoding="UTF-8" standalone="no"?>
<!-- Created with Inkscape (http://www.inkscape.org/) -->

<svg
   version="1.1"
   id="svg1"
   width="2158.8311"
   height="1349.4539"
   viewBox="0 0 2158.8311 1349.4539"
   xml:space="preserve"
   xmlns="http://www.w3.org/2000/svg"
   xmlns:svg="http://www.w3.org/2000/svg"><defs
     id="defs1"><rect
       x="473.96225"
       y="2191.698"
       width="2086.0376"
       height="467.92453"
       id="rect14" /></defs><g
     id="g1"
     style="display:none"
     transform="translate(-374.97402,-1097.3645)"><g
       id="group-R5"
       transform="translate(7.5471698,19.622642)"
       style="display:inline"><g
         id="g4"
         style="fill:#ffffff;fill-opacity:1"><path
           id="path3"
           d="m 1639.4834,1198.3214 c 9,-106.1467 -24.28,-215.20003 -99.96,-295.98669 -136.16,-145.34666 -357.9867,-144.18666 -495.4933,2.6 l -1.2667,1.34667 c -1.3466,1.50666 -2.92,2.21333 -3.5066,1.56 l -0.5334,-0.57334 c -137.50398,-146.78666 -359.33464,-147.94666 -495.48664,-2.6 -136.15466,145.34666 -135.06399,382.15996 2.436,528.93336 l 0.82934,0.8933 c 8.30729,8.8321 16.57997,17.6984 24.87066,26.5467 l 446.52404,476.6666 c 12.7733,13.64 33.6666,13.64 46.4266,0 l 446.5333,-476.6666 c 12.76,-13.6267 23.0267,-24.9867 22.8,-25.2267 -0.2266,-0.24 -0.1066,-0.7733 0.2667,-1.1733 0.36,-0.4 0.6667,-0.72 0.6667,-0.7334 -0.013,0 0.7466,-0.7866 1.6666,-1.76"
           style="fill:#ffffff;fill-opacity:1;stroke:#3f3d3e;stroke-width:56;stroke-linecap:round;stroke-linejoin:miter;stroke-miterlimit:10;stroke-dasharray:none;stroke-opacity:1" /><path
           d="m 1043.5052,905.67227 0.5334,-0.5734 c 137.504,-146.7866 359.3347,-147.9466 495.4867,-2.6 136.1546,145.34673 135.0639,382.16003 -2.436,528.93343 l -0.8294,0.8933 c -8.3073,8.8321 -16.58,17.6984 -24.8706,26.5467 l -446.5241,476.6666"
           style="fill:#ffffff;fill-opacity:1;stroke:#3f3d3e;stroke-width:56;stroke-linecap:round;stroke-linejoin:miter;stroke-miterlimit:10;stroke-dasharray:none;stroke-opacity:1"
           id="path1" /></g><g
         id="layer1" /><g
         id="layer2" /><path
         id="path4"
         d="m 1589.5164,541.11774 h 199.3814 l 176.2,-235.32 84.28,379.02666 133.64,-263.10666 36.1466,116.25333 h 337.6134"
         style="fill:none;stroke:#3f3d3e;stroke-width:56;stroke-linecap:round;stroke-linejoin:round;stroke-miterlimit:10;stroke-dasharray:none;stroke-opacity:1" /></g></g><g
     id="layer3"
     transform="translate(-374.97402,-1097.3645)"><g
       id="g2"
       transform="translate(6.8626942,163.30869)"><g
         id="g6"
         transform="translate(947.92453,190.18868)"><path
           id="path5"
           style="fill:#163a5f;fill-opacity:1;stroke-width:1.50943"
           d="m 1105.2401,744.28583 c -50.4492,2.67043 -100.4604,18.10884 -145.68553,46.08399 -20.3843,12.6091 -35.87322,24.81735 -56.41992,44.46875 -15.749,15.0628 -19.53731,17.94612 -24.66211,18.76562 -3.3302,0.5325 -6.05469,1.55911 -6.05469,2.28321 0,2.3476 -12.74061,1.39258 -17.66211,-1.32422 -2.6317,-1.4528 -12.13147,-9.56991 -21.10937,-18.03711 -19.3875,-18.2848 -29.07606,-26.00854 -50.28516,-40.08594 -54.8109,-36.3803 -125.90779,-55.02698 -189.27929,-49.64258 -40.9895,3.4827 -74.68114,12.71738 -110.77344,30.36328 -84.2918,41.2111 -147.82493,120.52025 -173.11133,216.09375 -16.8078,63.52762 -16.37486,129.02952 1.27734,193.07622 12.5517,45.541 36.00355,91.5624 65.34375,128.2324 4.9819,6.2264 51.79445,56.9164 104.02735,112.6445 52.233,55.7281 160.5157,171.3486 240.6289,256.9336 80.1132,85.5851 145.7702,155.6303 145.9043,155.6563 0.7899,0.156 254.64201,-271.346 397.84761,-425.1133 h -50.5214 a 60.256025,60.256025 0 0 1 -46.6328,-22.8184 l -69.4356,136.707 a 60.256025,60.256025 0 0 1 -112.5332,-14.207 l -55.82031,-251.041 -97.61719,130.3691 a 60.256025,60.256025 0 0 1 -48.22851,24.1368 H 585.05653 a 60.25,60.25 0 0 1 -60.25,-60.25 60.25,60.25 0 0 1 60.25,-60.25 h 169.22656 l 158.12695,-211.1817 a 60.256025,60.256025 0 0 1 51.1836,-24.0566 60.256025,60.256025 0 0 1 55.85746,47.0918 l 47.8203,215.0527 57.5683,-113.3398 a 60.256025,60.256025 0 0 1 111.252,9.3945 l 22.9746,73.8926 h 114.7559 c 41.9355,-59.6089 64.8373,-132.5314 64.8164,-207.545 0,-15.3585 -0.7324,-34.2077 -1.6192,-41.8867 -13.7468,-119.04085 -82.6034,-220.35408 -183.4687,-269.94528 -46.9733,-23.09475 -97.8613,-33.19191 -148.3106,-30.52149 z" /><g
           id="path6"
           style="opacity:1"><path
             style="baseline-shift:baseline;display:inline;overflow:visible;vector-effect:none;fill:#ffffff;fill-opacity:0;stroke-linecap:round;stroke-linejoin:round;stroke-miterlimit:10;enable-background:accumulate;stop-color:#000000;stop-opacity:1"
             d="m 585.0566,1357.5805 h 199.38141 l 176.2,-235.3201 84.27999,379.0267 133.64,-263.1066 36.1466,116.2533 h 337.6134"
             id="path7" /></g><path
           id="path4-9"
           d="m 585.0566,1357.5805 h 199.38141 l 176.2,-235.3201 84.27999,379.0267 133.64,-263.1066 36.1466,116.2533 h 337.6134"
           style="display:inline;fill:#000000;fill-opacity:0;stroke:#163a5f;stroke-width:53.4;stroke-linecap:round;stroke-linejoin:round;stroke-miterlimit:10;stroke-dasharray:none;stroke-opacity:1" /></g><g
         id="g14"
         transform="translate(172)"><g
           id="g13"><g
             id="g7"
             transform="translate(167.0566,1504.9057)"><g
               id="g12"
               transform="translate(-79.24526,1025.6603)"><g
                 id="g11"><rect
                   style="fill:#163a5f;fill-opacity:1;stroke:#163a5f;stroke-width:27.4;stroke-linejoin:miter;stroke-dasharray:none;stroke-opacity:1"
                   id="rect10"
                   width="144.90565"
                   height="507.1698"
                   x="583.13208"
                   y="-1302.6415" /><rect
                   style="fill:#163a5f;fill-opacity:1;stroke:#163a5f;stroke-width:27.4;stroke-linejoin:miter;stroke-dasharray:none;stroke-opacity:1"
                   id="rect11"
                   width="144.90565"
                   height="507.1698"
                   x="-1121.5094"
                   y="-909.1698"
                   transform="rotate(90)" /></g></g></g><circle
             style="fill:none;fill-opacity:1;stroke:#163a5f;stroke-width:55.6322;stroke-linejoin:miter;stroke-dasharray:none;stroke-opacity:1"
             id="path10"
             cx="743.39624"
             cy="1481.5094"
             r="519.46881" /></g></g></g><text
       xml:space="preserve"
       id="text14"
       style="font-size:266.667px;text-align:start;writing-mode:lr-tb;direction:ltr;white-space:pre;shape-inside:url(#rect14);display:inline;fill:#163a5f;fill-opacity:1;stroke:#163a5f;stroke-width:11.7;stroke-linejoin:miter;stroke-dasharray:none;stroke-opacity:1"><tspan
         x="473.96289"
         y="2438.3642"
         id="tspan2"><tspan
           style="font-family:Classica;-inkscape-font-specification:Classica"
           id="tspan1">CARECONNECT</tspan></tspan></text></g></svg>
